<svg width="1359" height="710" viewBox="0 0 1359 710" fill="none" xmlns="http://www.w3.org/2000/svg">
<rect x="336" y="636" width="1023" height="50" fill="#A2A2A2"/>
<rect y="358" width="964" height="50" fill="#A2A2A2"/>
<path d="M94.8103 0H318.819L363.621 107.524L300.899 286.732H112.731L50.0085 107.524L94.8103 0Z" fill="#D1D1D1"/>
<path d="M179.038 286.732H233.696V323.469L318.82 375.439V481.902L256.097 519.701H148.573L94.8105 397.84H130.652L179.038 461.459H256.097V397.84L179.038 349.454V286.732Z" fill="#C1BFBF"/>
<path d="M328.893 540.771C326.76 559.586 320.262 576.171 309.399 590.525C298.537 604.685 284.183 615.741 266.337 623.694C248.492 631.647 228.124 635.624 205.236 635.624C180.213 635.624 158.197 630.871 139.188 621.367C120.372 611.862 105.727 598.575 95.2529 581.505C84.7783 564.435 79.541 544.553 79.541 521.858C79.541 499.164 84.7783 479.281 95.2529 462.212C105.727 445.142 120.372 431.855 139.188 422.35C158.197 412.845 180.213 408.093 205.236 408.093C228.124 408.093 248.492 412.07 266.337 420.023C284.183 427.975 298.537 439.032 309.399 453.192C320.262 467.352 326.76 483.937 328.893 502.946H273.611C271.671 493.053 267.695 484.616 261.682 477.633C255.863 470.649 248.104 465.315 238.405 461.63C228.9 457.75 217.844 455.811 205.236 455.811C190.688 455.811 178.176 458.526 167.702 463.957C157.227 469.195 149.177 476.76 143.552 486.652C137.927 496.545 135.114 508.28 135.114 521.858C135.114 535.437 137.927 547.172 143.552 557.065C149.177 566.957 157.227 574.619 167.702 580.05C178.176 585.288 190.688 587.906 205.236 587.906C217.844 587.906 228.9 586.063 238.405 582.378C248.104 578.693 255.863 573.358 261.682 566.375C267.695 559.392 271.671 550.857 273.611 540.771H328.893Z" fill="#E16D18"/>
<path d="M94.8105 397.84L148.573 519.701L179.038 461.459L130.652 397.84H94.8105Z" fill="#D62020"/>
<path d="M426.598 636L422.507 602.122L426.926 589.356L422.507 576.753L426.598 542.711H458.186L452.457 589.356L458.186 636H426.598ZM434.127 589.356C432.49 599.285 429.381 607.959 424.798 615.378C420.215 622.689 414.433 628.417 407.449 632.563C400.466 636.6 392.611 638.619 383.882 638.619C374.717 638.619 366.642 636.546 359.659 632.399C352.785 628.253 347.384 622.525 343.457 615.215C339.529 607.795 337.565 599.176 337.565 589.356C337.565 579.536 339.529 570.971 343.457 563.66C347.384 556.241 352.785 550.458 359.659 546.312C366.642 542.166 374.717 540.093 383.882 540.093C392.611 540.093 400.466 542.166 407.449 546.312C414.433 550.349 420.215 556.023 424.798 563.333C429.49 570.643 432.599 579.318 434.127 589.356ZM368.334 589.356C368.334 594.375 369.37 598.848 371.443 602.776C373.516 606.595 376.353 609.65 379.954 611.941C383.664 614.124 387.919 615.215 392.72 615.215C397.52 615.215 402.049 614.124 406.304 611.941C410.668 609.65 414.487 606.595 417.76 602.776C421.034 598.848 423.489 594.375 425.125 589.356C423.489 584.337 421.034 579.918 417.76 576.099C414.487 572.171 410.668 569.116 406.304 566.934C402.049 564.642 397.52 563.497 392.72 563.497C387.919 563.497 383.664 564.642 379.954 566.934C376.353 569.116 373.516 572.171 371.443 576.099C369.37 579.918 368.334 584.337 368.334 589.356ZM475.437 542.711H505.715V636H475.437V542.711ZM553.178 542.711H583.456V636H553.178V542.711ZM492.785 577.081H564.798V599.83H492.785V577.081ZM864.2 542.711H894.478V570.862L893.333 574.789V599.012L894.478 606.213V663.005H864.2V542.711ZM884.495 589.356C886.131 579.318 889.241 570.643 893.824 563.333C898.406 556.023 904.189 550.349 911.172 546.312C918.264 542.166 926.12 540.093 934.74 540.093C943.905 540.093 951.925 542.166 958.799 546.312C965.782 550.458 971.237 556.241 975.165 563.66C979.093 570.971 981.057 579.536 981.057 589.356C981.057 599.176 979.093 607.795 975.165 615.215C971.237 622.525 965.782 628.253 958.799 632.399C951.925 636.546 943.905 638.619 934.74 638.619C926.011 638.619 918.155 636.6 911.172 632.563C904.298 628.417 898.515 622.689 893.824 615.378C889.241 607.959 886.131 599.285 884.495 589.356ZM950.288 589.356C950.288 584.337 949.251 579.918 947.178 576.099C945.105 572.171 942.214 569.116 938.504 566.934C934.903 564.642 930.703 563.497 925.902 563.497C921.101 563.497 916.518 564.642 912.154 566.934C907.899 569.116 904.134 572.171 900.861 576.099C897.697 579.918 895.242 584.337 893.496 589.356C895.242 594.375 897.697 598.848 900.861 602.776C904.134 606.595 907.899 609.65 912.154 611.941C916.518 614.124 921.101 615.215 925.902 615.215C930.703 615.215 934.903 614.124 938.504 611.941C942.214 609.65 945.105 606.595 947.178 602.776C949.251 598.848 950.288 594.375 950.288 589.356ZM1081.16 636L1077.07 602.122L1081.48 589.356L1077.07 576.753L1081.16 542.711H1112.74L1107.02 589.356L1112.74 636H1081.16ZM1088.69 589.356C1087.05 599.285 1083.94 607.959 1079.36 615.378C1074.77 622.689 1068.99 628.417 1062.01 632.563C1055.03 636.6 1047.17 638.619 1038.44 638.619C1029.28 638.619 1021.2 636.546 1014.22 632.399C1007.34 628.253 1001.94 622.525 998.015 615.215C994.087 607.795 992.124 599.176 992.124 589.356C992.124 579.536 994.087 570.971 998.015 563.66C1001.94 556.241 1007.34 550.458 1014.22 546.312C1021.2 542.166 1029.28 540.093 1038.44 540.093C1047.17 540.093 1055.03 542.166 1062.01 546.312C1068.99 550.349 1074.77 556.023 1079.36 563.333C1084.05 570.643 1087.16 579.318 1088.69 589.356ZM1022.89 589.356C1022.89 594.375 1023.93 598.848 1026 602.776C1028.08 606.595 1030.91 609.65 1034.51 611.941C1038.22 614.124 1042.48 615.215 1047.28 615.215C1052.08 615.215 1056.61 614.124 1060.86 611.941C1065.23 609.65 1069.05 606.595 1072.32 602.776C1075.59 598.848 1078.05 594.375 1079.68 589.356C1078.05 584.337 1075.59 579.918 1072.32 576.099C1069.05 572.171 1065.23 569.116 1060.86 566.934C1056.61 564.642 1052.08 563.497 1047.28 563.497C1042.48 563.497 1038.22 564.642 1034.51 566.934C1030.91 569.116 1028.08 572.171 1026 576.099C1023.93 579.918 1022.89 584.337 1022.89 589.356ZM1130 542.711H1160.27V636H1130V542.711ZM1207.74 542.711H1238.01V636H1207.74V542.711ZM1147.34 577.081H1219.36V599.83H1147.34V577.081Z" fill="white"/>
<path d="M615.325 636V408.285H672.405V590.154L656.921 578.312L791.728 408.285H852.452L666.94 636H615.325ZM724.324 525.786L765.617 490.263L855.488 636H790.513L724.324 525.786Z" fill="#E16D18"/>
</svg>
